<svg width="178" height="48" viewBox="0 0 178 48" fill="none" xmlns="http://www.w3.org/2000/svg">
<path d="M37.9625 23C37.9625 27.0313 36.3611 30.8975 33.5105 33.7481C30.66 36.5986 26.7938 38.2 22.7625 38.2M37.9625 23C37.9625 18.9688 36.3611 15.1026 33.5105 12.252C30.66 9.40147 26.7938 7.80005 22.7625 7.80005M37.9625 23C37.9625 26.8749 31.1576 30.0154 22.7625 30.0154C14.3674 30.0154 7.5625 26.8749 7.5625 23M37.9625 23C37.9625 19.1252 31.1576 15.9847 22.7625 15.9847C14.3674 15.9847 7.5625 19.1252 7.5625 23M22.7625 38.2C18.7312 38.2 14.865 36.5986 12.0145 33.7481C9.16392 30.8975 7.5625 27.0313 7.5625 23M22.7625 38.2C26.6373 38.2 29.7779 31.3951 29.7779 23C29.7779 14.605 26.6373 7.80005 22.7625 7.80005M22.7625 38.2C18.8877 38.2 15.7471 31.3951 15.7471 23C15.7471 14.605 18.8877 7.80005 22.7625 7.80005M22.7625 7.80005C18.7312 7.80005 14.865 9.40147 12.0145 12.252C9.16392 15.1026 7.5625 18.9688 7.5625 23" stroke="#0B78B3" stroke-width="0.869565"/>
<path d="M53.776 34V27.628C53.776 27.124 53.732 26.608 53.644 26.08C53.564 25.544 53.404 25.048 53.164 24.592C52.932 24.136 52.6 23.768 52.168 23.488C51.744 23.208 51.188 23.068 50.5 23.068C50.052 23.068 49.628 23.144 49.228 23.296C48.828 23.44 48.476 23.676 48.172 24.004C47.876 24.332 47.64 24.764 47.464 25.3C47.296 25.836 47.212 26.488 47.212 27.256L45.652 26.668C45.652 25.492 45.872 24.456 46.312 23.56C46.752 22.656 47.384 21.952 48.208 21.448C49.032 20.944 50.028 20.692 51.196 20.692C52.092 20.692 52.844 20.836 53.452 21.124C54.06 21.412 54.552 21.792 54.928 22.264C55.312 22.728 55.604 23.236 55.804 23.788C56.004 24.34 56.14 24.88 56.212 25.408C56.284 25.936 56.32 26.4 56.32 26.8V34H53.776ZM44.668 34V21.04H46.912V24.784H47.212V34H44.668ZM59.6856 34V16.36H62.1936V34H59.6856ZM66.0372 18.916V16.48H68.5452V18.916H66.0372ZM66.0372 34V21.04H68.5452V34H66.0372ZM81.2448 34V27.628C81.2448 27.124 81.2008 26.608 81.1128 26.08C81.0328 25.544 80.8728 25.048 80.6328 24.592C80.4008 24.136 80.0688 23.768 79.6368 23.488C79.2128 23.208 78.6568 23.068 77.9688 23.068C77.5208 23.068 77.0968 23.144 76.6968 23.296C76.2968 23.44 75.9448 23.676 75.6408 24.004C75.3448 24.332 75.1088 24.764 74.9328 25.3C74.7648 25.836 74.6808 26.488 74.6808 27.256L73.1208 26.668C73.1208 25.492 73.3408 24.456 73.7808 23.56C74.2208 22.656 74.8528 21.952 75.6768 21.448C76.5008 20.944 77.4968 20.692 78.6648 20.692C79.5608 20.692 80.3128 20.836 80.9208 21.124C81.5288 21.412 82.0208 21.792 82.3968 22.264C82.7808 22.728 83.0728 23.236 83.2728 23.788C83.4728 24.34 83.6088 24.88 83.6808 25.408C83.7528 25.936 83.7888 26.4 83.7888 26.8V34H81.2448ZM72.1368 34V21.04H74.3808V24.784H74.6808V34H72.1368ZM92.4983 34.36C91.2103 34.36 90.0783 34.08 89.1023 33.52C88.1343 32.952 87.3783 32.164 86.8343 31.156C86.2983 30.14 86.0303 28.964 86.0303 27.628C86.0303 26.212 86.2943 24.984 86.8223 23.944C87.3583 22.904 88.1023 22.1 89.0543 21.532C90.0063 20.964 91.1143 20.68 92.3783 20.68C93.6983 20.68 94.8223 20.988 95.7503 21.604C96.6783 22.212 97.3703 23.08 97.8263 24.208C98.2903 25.336 98.4743 26.676 98.3783 28.228H95.8703V27.316C95.8543 25.812 95.5663 24.7 95.0063 23.98C94.4543 23.26 93.6103 22.9 92.4743 22.9C91.2183 22.9 90.2743 23.296 89.6423 24.088C89.0103 24.88 88.6943 26.024 88.6943 27.52C88.6943 28.944 89.0103 30.048 89.6423 30.832C90.2743 31.608 91.1863 31.996 92.3783 31.996C93.1623 31.996 93.8383 31.82 94.4063 31.468C94.9823 31.108 95.4303 30.596 95.7503 29.932L98.2103 30.712C97.7063 31.872 96.9423 32.772 95.9183 33.412C94.8943 34.044 93.7543 34.36 92.4983 34.36ZM87.8783 28.228V26.272H97.1303V28.228H87.8783ZM112.139 34.36C110.899 34.36 109.779 34.148 108.779 33.724C107.787 33.292 106.967 32.68 106.319 31.888C105.679 31.088 105.263 30.14 105.071 29.044L107.687 28.648C107.951 29.704 108.503 30.528 109.343 31.12C110.183 31.704 111.163 31.996 112.283 31.996C112.979 31.996 113.619 31.888 114.203 31.672C114.787 31.448 115.255 31.132 115.607 30.724C115.967 30.308 116.147 29.812 116.147 29.236C116.147 28.924 116.091 28.648 115.979 28.408C115.875 28.168 115.727 27.96 115.535 27.784C115.351 27.6 115.123 27.444 114.851 27.316C114.587 27.18 114.295 27.064 113.975 26.968L109.547 25.66C109.115 25.532 108.675 25.368 108.227 25.168C107.779 24.96 107.367 24.692 106.991 24.364C106.623 24.028 106.323 23.616 106.091 23.128C105.859 22.632 105.743 22.032 105.743 21.328C105.743 20.264 106.015 19.364 106.559 18.628C107.111 17.884 107.855 17.324 108.791 16.948C109.727 16.564 110.775 16.372 111.935 16.372C113.103 16.388 114.147 16.596 115.067 16.996C115.995 17.396 116.763 17.972 117.371 18.724C117.987 19.468 118.411 20.372 118.643 21.436L115.955 21.892C115.835 21.244 115.579 20.688 115.187 20.224C114.795 19.752 114.315 19.392 113.747 19.144C113.179 18.888 112.563 18.756 111.899 18.748C111.259 18.732 110.671 18.828 110.135 19.036C109.607 19.244 109.183 19.536 108.863 19.912C108.551 20.288 108.395 20.72 108.395 21.208C108.395 21.688 108.535 22.076 108.815 22.372C109.095 22.668 109.439 22.904 109.847 23.08C110.263 23.248 110.675 23.388 111.083 23.5L114.275 24.4C114.675 24.512 115.127 24.664 115.631 24.856C116.143 25.04 116.635 25.3 117.107 25.636C117.587 25.972 117.983 26.42 118.295 26.98C118.607 27.532 118.763 28.228 118.763 29.068C118.763 29.94 118.587 30.708 118.235 31.372C117.883 32.028 117.399 32.58 116.783 33.028C116.175 33.468 115.471 33.8 114.671 34.024C113.871 34.248 113.027 34.36 112.139 34.36ZM130.417 34V27.628C130.417 27.124 130.373 26.608 130.285 26.08C130.205 25.544 130.045 25.048 129.805 24.592C129.573 24.136 129.241 23.768 128.809 23.488C128.385 23.208 127.829 23.068 127.141 23.068C126.693 23.068 126.269 23.144 125.869 23.296C125.469 23.44 125.117 23.676 124.813 24.004C124.517 24.332 124.281 24.764 124.105 25.3C123.937 25.836 123.853 26.488 123.853 27.256L122.293 26.668C122.293 25.492 122.513 24.456 122.953 23.56C123.393 22.656 124.025 21.952 124.849 21.448C125.673 20.944 126.669 20.692 127.837 20.692C128.733 20.692 129.485 20.836 130.093 21.124C130.701 21.412 131.193 21.792 131.569 22.264C131.953 22.728 132.245 23.236 132.445 23.788C132.645 24.34 132.781 24.88 132.853 25.408C132.925 25.936 132.961 26.4 132.961 26.8V34H130.417ZM121.309 34V16.72H123.553V26.044H123.853V34H121.309ZM141.714 34.36C140.418 34.36 139.294 34.068 138.342 33.484C137.39 32.9 136.654 32.096 136.134 31.072C135.622 30.04 135.366 28.852 135.366 27.508C135.366 26.156 135.63 24.968 136.158 23.944C136.686 22.912 137.426 22.112 138.378 21.544C139.33 20.968 140.442 20.68 141.714 20.68C143.01 20.68 144.134 20.972 145.086 21.556C146.038 22.14 146.774 22.944 147.294 23.968C147.814 24.992 148.074 26.172 148.074 27.508C148.074 28.86 147.81 30.052 147.282 31.084C146.762 32.108 146.026 32.912 145.074 33.496C144.122 34.072 143.002 34.36 141.714 34.36ZM141.714 31.996C142.954 31.996 143.878 31.58 144.486 30.748C145.102 29.908 145.41 28.828 145.41 27.508C145.41 26.156 145.098 25.076 144.474 24.268C143.858 23.452 142.938 23.044 141.714 23.044C140.874 23.044 140.182 23.236 139.638 23.62C139.094 23.996 138.69 24.52 138.426 25.192C138.162 25.856 138.03 26.628 138.03 27.508C138.03 28.868 138.342 29.956 138.966 30.772C139.59 31.588 140.506 31.996 141.714 31.996ZM156.795 34.36C155.555 34.36 154.515 34.06 153.675 33.46C152.835 32.852 152.199 32.032 151.767 31C151.335 29.968 151.119 28.804 151.119 27.508C151.119 26.212 151.331 25.048 151.755 24.016C152.187 22.984 152.819 22.172 153.651 21.58C154.491 20.98 155.523 20.68 156.747 20.68C157.963 20.68 159.011 20.98 159.891 21.58C160.779 22.172 161.463 22.984 161.943 24.016C162.423 25.04 162.663 26.204 162.663 27.508C162.663 28.804 162.423 29.972 161.943 31.012C161.471 32.044 160.795 32.86 159.915 33.46C159.043 34.06 158.003 34.36 156.795 34.36ZM150.699 39.76V21.04H152.931V30.364H153.219V39.76H150.699ZM156.447 32.092C157.247 32.092 157.907 31.888 158.427 31.48C158.955 31.072 159.347 30.524 159.603 29.836C159.867 29.14 159.999 28.364 159.999 27.508C159.999 26.66 159.867 25.892 159.603 25.204C159.347 24.516 158.951 23.968 158.415 23.56C157.879 23.152 157.195 22.948 156.363 22.948C155.579 22.948 154.931 23.14 154.419 23.524C153.915 23.908 153.539 24.444 153.291 25.132C153.051 25.82 152.931 26.612 152.931 27.508C152.931 28.404 153.051 29.196 153.291 29.884C153.531 30.572 153.911 31.112 154.431 31.504C154.951 31.896 155.623 32.092 156.447 32.092Z" fill="#111827"/>
<circle cx="23" cy="23" r="17.75" stroke="#111827" stroke-width="2.5"/>
</svg>
